<svg width="100%" height="100%" viewBox="0 0 512 512">
  <rect x="0" y="0" width="100%" height="100%" fill="#F0F0F0"/>
  <g>
    <path d="M372.9,249.2c18.3-13.2,30.2-33.8,30.2-57c0-38.1-30.9-69-69-69s-69,30.9-69,69c0,23.2,11.9,43.8,30.2,57
      c-1.3,6.3-2.1,12.9-2.1,19.8c0,51.6,41.9,93.5,93.5,93.5s93.5-41.9,93.5-93.5C375,262.1,374.2,255.5,372.9,249.2z M256,332.1
      c-33.3,0-60.5-27.2-60.5-60.5c0-33.3,27.2-60.5,60.5-60.5c33.3,0,60.5,27.2,60.5,60.5C316.5,304.9,289.3,332.1,256,332.1z"/>
    <path d="M256,291.6c-11.8,0-21.5-9.6-21.5-21.5v-52.5c0-11.8,9.6-21.5,21.5-21.5c11.8,0,21.5,9.6,21.5,21.5v52.5
      C277.5,282,267.8,291.6,256,291.6z"/>
  </g>
</svg>
